<?xml version="1.0" encoding="UTF-8"?>
<svg id="Layer_2" data-name="Layer 2" xmlns="http://www.w3.org/2000/svg" viewBox="0 0 131.76 133.08">
  <defs>
    <style>
      .cls-1 {
        fill: #ae9dd6;
      }

      .cls-2 {
        fill: #fff;
      }

      .cls-3 {
        fill: #e2e2e2;
      }

      .cls-4 {
        fill: #efefef;
      }

      .cls-5 {
        fill: #113f59;
      }
    </style>
  </defs>
  <g id="Layer_1" data-name="Layer 1">
    <g>
      <path class="cls-2" d="M21.38,26.28h86.82c7.33,0,13.27,5.94,13.27,13.27v71.72c0,10.5-11.61,16.84-20.45,11.17l-.87-.56c-4.4-2.82-10.04-2.81-14.42.05l-13.81,8.99c-4.35,2.84-9.96,2.87-14.35.09l-14.47-9.17c-4.41-2.8-10.06-2.74-14.42.14h0c-8.83,5.83-20.59-.5-20.59-11.08V39.55c0-7.33,5.94-13.27,13.27-13.27Z"/>
      <g>
        <path class="cls-1" d="M87.81,81.79v16.85c0,2.22-1.8,4.02-4.02,4.02h-46.55c-2.22,0-4.02-1.8-4.02-4.02h0c0-2.23,1.8-4.03,4.02-4.03h38.5c2.22,0,4.02-1.8,4.02-4.02v-8.8c0-2.22,1.8-4.02,4.02-4.02h0c2.22,0,4.02,1.8,4.02,4.02Z"/>
        <path class="cls-1" d="M67.16,77.19v.53l8,.03c2.22,0,4.01,1.81,4.01,4.02v8.23c0,2.22-1.8,4.02-4.02,4.02h-37.9c-2.22,0-4.02-1.8-4.02-4.02v-12.82h-.59v21.46c0,2.22-1.8,4.02-4.02,4.02h-8.63c-2.22,0-4.02-1.8-4.02-4.02v-25.48c0-2.22,1.8-4.02,4.02-4.02h0c2.22,0,4.02,1.8,4.02,4.02v21.45h.58v-21.45c0-2.22,1.8-4.02,4.02-4.02h8.64c2.22,0,4.02,1.8,4.02,4.02v12.61h.58v-12.61c0-2.22,1.8-4.02,4.02-4.02h0c2.22,0,4.02,1.8,4.02,4.02v12.61h.58v-9.88c0-2.22,1.8-4.02,4.02-4.02h0c2.22,0,4.02,1.8,4.02,4.02v5.86c0,2.22,1.8,4.02,4.02,4.02h4.45v-.5l-3.89-.02c-2.21-.01-4-1.81-4-4.02v-8.07c0-2.22,1.8-4.02,4.02-4.02h20.66c2.22,0,4.02,1.8,4.02,4.02h0c0,2.22-1.8,4.02-4.02,4.02h-16.63Z"/>
        <rect class="cls-1" x="54.74" y="69.14" width="3.79" height="2.15" rx="1.07" ry="1.07"/>
        <rect class="cls-1" x="50.48" y="69.14" width="3.79" height="2.15" rx="1.07" ry="1.07"/>
        <path class="cls-1" d="M101.04,69.13c-2.22,0-4.02,1.8-4.02,4.02v21.46h-.56v-21.46c0-2.22-1.8-4.02-4.02-4.02h0c-2.22,0-4.02,1.8-4.02,4.02v25.49c0,2.22,1.8,4.02,4.02,4.02h17.17c2.22,0,4.02-1.8,4.02-4.02v-25.49c0-2.22-1.8-4.02-4.02-4.02h-8.56ZM105.58,94.62h-.58v-17.44h.58v17.44Z"/>
      </g>
      <g>
        <path class="cls-5" d="M11.29,45.86c.1-.2.19-.4.29-.6h-.38l.09.6Z"/>
        <g>
          <path class="cls-4" d="M0,33.64v11.67c0,8.65,7.37,15.66,16.47,15.66h0c9.1,0,16.47-7.01,16.47-15.66v-11.67H0Z"/>
          <path class="cls-3" d="M32.94,33.64v11.67c0,8.65,7.37,15.66,16.47,15.66h0c9.1,0,16.47-7.01,16.47-15.66v-11.67h-32.94Z"/>
          <path class="cls-4" d="M65.88,33.64v11.67c0,8.65,7.37,15.66,16.47,15.66h0c9.1,0,16.47-7.01,16.47-15.66v-11.67h-32.94Z"/>
          <path class="cls-3" d="M98.82,33.64v11.67c0,8.65,7.37,15.66,16.47,15.66h0c9.1,0,16.47-7.01,16.47-15.66v-11.67h-32.94Z"/>
          <path class="cls-3" d="M26.88,3.36L0,33.64h32.94L46.84,0h-12.49c-2.86,0-5.58,1.22-7.48,3.36Z"/>
          <polygon class="cls-3" points="64.6 0 65.88 33.64 98.82 33.64 82.85 0 64.6 0"/>
          <polygon class="cls-4" points="46.84 0 32.94 33.64 65.88 33.64 64.6 0 46.84 0"/>
          <path class="cls-4" d="M93.98,0h-11.13l15.97,33.64h32.94L101.05,2.93c-1.88-1.88-4.42-2.93-7.07-2.93Z"/>
        </g>
      </g>
    </g>
  </g>
</svg>